PathFileType	4	(X/Y/Z)	1_1_7_p0_0-197_filt_butterworth.trc
DataRate	CameraRate	NumFrames	NumMarkers	Units	OrigDataRate	OrigDataStartFrame	OrigNumFrames
60.0	60.0	4	27	m	60.0	0	197
Frame#	Time	RHip			RKnee			RAnkle			RBigToe			RSmallToe			RHeel			LHip			LKnee			LAnkle			LBigToe			LSmallToe			LHeel			Neck			Head			Nose			RShoulder			RElbow			RWrist			RThumb			RIndex			RPinky			LShoulder			LElbow			LWrist			LThumb			LIndex			LPinky			
		X1	Y1	Z1	X2	Y2	Z2	X3	Y3	Z3	X4	Y4	Z4	X5	Y5	Z5	X6	Y6	Z6	X7	Y7	Z7	X8	Y8	Z8	X9	Y9	Z9	X10	Y10	Z10	X11	Y11	Z11	X12	Y12	Z12	X13	Y13	Z13	X14	Y14	Z14	X15	Y15	Z15	X16	Y16	Z16	X17	Y17	Z17	X18	Y18	Z18	X19	Y19	Z19	X20	Y20	Z20	X21	Y21	Z21	X22	Y22	Z22	X23	Y23	Z23	X24	Y24	Z24	X25	Y25	Z25	X26	Y26	Z26	X27	Y27	Z27	
0	0.0	0.37460491816481856	0.18228511942052056	1.092854192091306	0.3882230675245283	0.2601215832675203	1.5554760362021856	0.3926285415485647	0.3400101509917418	1.9592009178404357	0.34425983764612267	0.19513833126501642	2.0248376487058777	0.41777126345779086	0.2192023090210557	2.0235330145047383	0.3656310648397027	0.4208356251544476	2.0301517502232835	0.15063629302354473	0.1612251765083241	1.0981245244885292	0.16499427608693495	0.24978298352826156	1.5524554529990695	0.19108365133293956	0.35307188083856117	1.9730583206510799	0.18915704198683628	0.15193641022672463	1.9987632146994734	0.13364916523821474	0.20659974931762215	1.9911546488558713	0.21411059391229334	0.4241104243997616	2.0440859445430655	0.26681046680410614	0.10882110784743529	0.41604733673758676	0.26263590466969805	0.06715404060556668	0.15617951732584417	0.2596867414446356	0.009387992774992368	0.29413691870056036	0.4489975646954154	0.11038507062178969	0.5360122874275389	0.4831768017246825	0.0746278116983154	0.8374636811083935	0.33608689076193154	0.033751794162334724	1.0401547384978047	0.26370500888928117	0.0348014579967305	1.0967207883080543	0.23835287793838014	0.06930708171040222	1.1322062502125798	0.23916621621164408	0.05833699748709328	1.125172998597902	0.060636460430292034	0.13629199721544677	0.545059949911601	0.057299360439982266	0.09270875841990155	0.8178313220144549	0.18484076252640777	0.0074389918605855575	1.0265490788167795	0.29366745203177047	0.014180972450155899	1.0614676494801845	0.3034349076247154	0.013923832425868353	1.1120280540053442	0.2517065597386119	0.06722040629711208	1.1425476215841814
1	0.0166666666666666	0.3769118873692645	0.17105188657039705	1.0920129286400964	0.38590197235512064	0.2689871408906236	1.5590659686962376	0.3873013583173025	0.33975738482201673	1.956616158034038	0.3436989321718327	0.18601159838036765	2.018983140192618	0.41550558131307114	0.2134177182553536	2.0171360613569456	0.3594486548840508	0.4288535775243988	2.034423816039503	0.14879611553770766	0.1561637636179587	1.1038269757555528	0.16221019330920958	0.2465544606785432	1.5505896046310672	0.1891584232398837	0.3553883439573802	1.9682555134859396	0.18922167130879997	0.15197736027205488	2.000520053345011	0.13607976806452393	0.2080742052065816	1.992705600360675	0.21117893375102623	0.4275437890676908	2.0406360258802505	0.2662944160590801	0.11008954887324598	0.41340726914845616	0.2626475560725851	0.06752894777973456	0.15694339805024668	0.25965030119456056	0.009411589546188839	0.29409034127623274	0.44446464763735605	0.11922252218991658	0.5366910770916049	0.4832882478936875	0.07477866543581205	0.8374531980539621	0.3359304940439272	0.03332540981536617	1.0393395390781925	0.2552926044640395	0.051054190109749306	1.1046326905109072	0.23794137800577986	0.06882283998265838	1.131521665134293	0.24269619312437685	0.0471701909619705	1.1229142557796725	0.0634454827753641	0.12983160514545222	0.5455825939556175	0.057522794133832295	0.09218825187597751	0.8199733434252544	0.1846205159596359	0.006855851194468472	1.0249126147451344	0.29303596922130465	0.00970404131475837	1.0580619151124142	0.3042068305626849	0.015930277611547215	1.1121215096271926	0.2507159363552582	0.07020384806696517	1.1432863352459806
2	0.0333333333333333	0.37829403722527416	0.16418265806968618	1.091433343020586	0.3845070988019147	0.2743492908950415	1.5612471619410468	0.38409938494045237	0.339323231975805	1.955230524219028	0.3433592950373529	0.18053352615696902	2.015403621222573	0.4146568589333309	0.20767662718323154	2.012677252842549	0.35566300662891154	0.4336311441202342	2.0366449589153564	0.1477222666752736	0.15250800484911817	1.1076653417983946	0.1606837057609627	0.24479298083266915	1.5500096486121444	0.1880820496769717	0.3568911869105749	1.9653991340087411	0.18928913398735436	0.15205503966867379	2.0015442708123468	0.137604523620514	0.20875909476852111	1.993436272819876	0.2094385173483086	0.42890766322945134	2.038982815155329	0.2660004581077662	0.11077752387816091	0.4122646291484131	0.26265269419413306	0.06768200221628587	0.15725505579340657	0.25963341245242083	0.0094218116125947	0.2940638658923095	0.44173474272752605	0.12455426336119543	0.5371002151985327	0.4833369364252502	0.07483857015775666	0.8374574013636442	0.33594298514182813	0.03327429472311828	1.0395096649250064	0.25049520188330454	0.061743555593775326	1.110471542602395	0.23773912069836095	0.06862832800860431	1.1313207423801712	0.24460555655275082	0.04110644410338073	1.1214820875342442	0.06515571351394053	0.12608728193334792	0.5463539085076439	0.05767548879601023	0.09201318216471428	0.821276730516278	0.1844279600525432	0.0063689313150556755	1.0234047557682489	0.2926823885201931	0.007070607570256544	1.055981785488313	0.3044000841648617	0.015773524664932398	1.1117929044499457	0.2504318486590987	0.07039169296798031	1.1431179091346526
3	0.05	0.378698177111996	0.1621602855889091	1.0912598526638624	0.38410641575604065	0.27590759610147564	1.5619044587403974	0.3832493359589893	0.33860586341139515	1.9554774837848956	0.343263365525663	0.17895867682420014	2.014336553706915	0.415022847341409	0.2033770880771176	2.010984804565078	0.3544239757043945	0.4347198561342377	2.0365298223257664	0.14750916249621557	0.15097902136407684	1.1094646370802879	0.16045088978211228	0.24472710817451265	1.5505238080484396	0.1878167400166656	0.35739203847998846	1.9646023735861728	0.18932679919687145	0.15210473988577228	2.001838202904251	0.13802948931329895	0.20827689324931042	1.9938043151312164	0.20854091274456155	0.42750952332068876	2.038602493007243	0.2659343194358841	0.11088760594040112	0.41243068810304895	0.2626591542289404	0.06755330098356517	0.1569733496689487	0.2596402838090399	0.009396860533636475	0.29406203518579804	0.44095397361762645	0.12609179582723976	0.5372265830763929	0.4833206378913052	0.0748220792181798	0.8374812944426878	0.3361525716302029	0.03349282824454896	1.040498585143553	0.2497551714310101	0.0653082962934915	1.113528102153401	0.23779261492124426	0.06874850349558206	1.1312262019436388	0.24464222462840135	0.04083007145363388	1.1212594889852752	0.0656652352476482	0.12516184940933273	0.5470890983297716	0.05757111194098889	0.09182460542528617	0.8216330119395319	0.18430541378305254	0.005987674417693935	1.022383152740269	0.29260547965339484	0.006443932074793089	1.0553398255928632	0.304165748030473	0.01414661816995994	1.1112215202589786	0.2505116267494726	0.06843669006380426	1.1423563219049084
